<svg width="25" height="18" viewBox="0 0 25 18" fill="none" xmlns="http://www.w3.org/2000/svg">
<path d="M3.86035 12.3087H0.579102C0.372852 12.3087 0.204102 12.14 0.204102 11.9337V5.74624C0.204102 5.53999 0.372852 5.37124 0.579102 5.37124H3.86035V12.3087ZM11.5104 0.45874L4.49785 5.38999V12.3087L11.5104 17.2587V0.45874ZM13.2354 8.16499C13.8729 8.74624 13.8729 9.70249 13.2354 10.2837L14.2291 11.1837C15.4104 10.0962 15.4104 8.33374 14.2291 7.24624L13.2354 8.16499ZM16.5354 5.12749C18.9916 7.37749 18.9916 11.0525 16.5354 13.3025L17.5291 14.2025C20.5291 11.4462 20.5291 6.96499 17.5291 4.20874L16.5354 5.12749ZM19.6666 2.25874C23.8479 6.10249 23.8479 12.3462 19.6666 16.19L20.6604 17.09C25.3854 12.74 25.3854 5.68999 20.6604 1.33999L19.6666 2.25874Z" fill="#FCFCFC"/>
</svg>
