<svg width="180" height="43" viewBox="0 0 180 43" fill="none" xmlns="http://www.w3.org/2000/svg">
<g clip-path="url(#clip0_71_1139)">
<path d="M68.7206 23.0558C68.7206 31.0013 63.5801 36.6443 56.046 36.6443C48.5119 36.6443 43.2285 31.2983 43.2285 23.9101C43.2285 16.5218 48.5736 11.1362 55.9872 11.1362C62.2936 11.1362 67.4509 15.1189 68.4683 20.7619H61.5228C60.6511 18.7168 58.4985 17.4015 56.046 17.4015C52.4415 17.4015 50.0143 20.0321 50.0143 23.9101C50.0143 27.7881 52.4023 30.379 56.046 30.379C58.5742 30.379 60.7436 29.1429 61.5004 27.2704H55.5247V23.053H68.7178L68.7206 23.0558Z" fill="#FCFCFC"/>
<path d="M89.9943 24.7529V36.0304H83.6009V25.5025C83.6009 23.3414 82.8498 22.2411 81.1821 22.2411C79.2481 22.2411 78.0429 23.6271 78.0429 26.0314V36.0333H71.6495V10.5393H78.0429V18.5357C79.4107 17.4241 81.1484 16.7509 82.9983 16.7509C87.2587 16.7509 89.9971 19.9019 89.9971 24.7557L89.9943 24.7529Z" fill="#FCFCFC"/>
<path d="M92.7355 26.665C92.7355 20.8579 97.0911 16.6858 103.14 16.6858C109.188 16.6858 113.544 20.8579 113.544 26.665C113.544 32.4721 109.169 36.6442 103.14 36.6442C97.1108 36.6442 92.7355 32.4523 92.7355 26.665ZM103.14 30.8485C105.472 30.8485 107.142 29.1428 107.142 26.665C107.142 24.1872 105.472 22.4815 103.14 22.4815C100.808 22.4815 99.1372 24.1872 99.1372 26.665C99.1372 29.1428 100.808 30.8485 103.14 30.8485Z" fill="#FCFCFC"/>
<path d="M123.66 36.6443C118.6 36.6443 115.526 33.9487 115.47 29.8897H121.622C121.622 31.2587 122.566 31.8895 123.78 31.8895C124.716 31.8895 125.602 31.4086 125.602 30.4413C125.602 29.3607 124.198 29.0524 122.415 28.7554C119.537 28.2859 115.722 27.409 115.722 22.8663C115.722 19.1128 118.892 16.6887 123.648 16.6887C128.405 16.6887 131.438 19.226 131.51 23.0219H125.523C125.523 21.8254 124.727 21.271 123.57 21.271C122.544 21.271 121.857 21.783 121.857 22.6514C121.857 23.7177 123.276 23.9638 125.039 24.2834C127.97 24.8096 131.869 25.4234 131.869 30.1725C131.869 34.0873 128.595 36.6471 123.662 36.6471L123.66 36.6443Z" fill="#FCFCFC"/>
<path d="M147.198 30.3817V36.0332H142.8C138.697 36.0332 136.202 33.5016 136.202 29.338V22.2722H132.805V20.7646L141.121 11.8291H142.436V17.3052H147.097V22.2722H142.596V28.232C142.596 29.5728 143.397 30.3817 144.745 30.3817H147.198Z" fill="#FCFCFC"/>
<path d="M150.18 10.5393H156.574V36.0304H150.18V10.5393Z" fill="#FCFCFC"/>
<path d="M180 17.3025L172.222 35.1989C169.719 40.9296 167.421 43.0029 162.628 43.0029H160.439V37.4589H162.196C164.643 37.4589 165.38 36.8168 166.246 34.4861L158.578 17.3025H165.523L169.461 27.6211L173.13 17.3025H179.997H180Z" fill="#FCFCFC"/>
<path d="M21.2232 7.38824H54.0839C56.1048 7.38824 57.7445 5.73352 57.7445 3.69412C57.7445 1.65472 56.1076 0 54.0839 0H21.2848C9.69497 0 0.0867511 9.35693 -0.000137736 21.0531C-0.0870266 32.8426 9.35863 42.4286 21.0213 42.4286C28.4461 42.4286 34.9712 38.545 38.713 32.6785C40.2714 30.2346 38.4888 27.0185 35.6103 27.0185H35.6047C34.3462 27.0185 33.1942 27.6833 32.5075 28.7496C30.0185 32.605 25.6769 35.1337 20.7523 35.0376C13.1593 34.8933 7.18921 28.6619 7.32095 20.9654C7.44988 13.3933 13.7171 7.38824 21.2204 7.38824H21.2232Z" fill="#3B82F6"/>
<path d="M18.8352 23.5393C20.1076 23.5393 21.1392 22.4984 21.1392 21.2142C21.1392 19.9301 20.1076 18.8892 18.8352 18.8892C17.5628 18.8892 16.5312 19.9301 16.5312 21.2142C16.5312 22.4984 17.5628 23.5393 18.8352 23.5393Z" fill="#3B82F6"/>
<path d="M26.3722 23.5393C27.6446 23.5393 28.6761 22.4984 28.6761 21.2142C28.6761 19.9301 27.6446 18.8892 26.3722 18.8892C25.0998 18.8892 24.0682 19.9301 24.0682 21.2142C24.0682 22.4984 25.0998 23.5393 26.3722 23.5393Z" fill="#3B82F6"/>
</g>
<defs>
<clipPath id="clip0_71_1139">
<rect width="180" height="43" fill="white"/>
</clipPath>
</defs>
</svg>
